# xmcd
#
# Track frame offsets: 
#        150
#        30499
#        63417
#        83778
#        108754
#        151184
#        164747
#        207706
#        227501
#        259990
#        282507
#        304018
#        323122
#
# Disc length: 4630 seconds
#
# Revision: 0
# Processed by: cddbd v1.5.2PL0 Copyright (c) Steve Scherf et al.
# Submitted via: ExactAudioCopy v0.95a5
#
DISCID=b012140d
DTITLE=Mozart, Linda Nicholson (Fortepiano) - Sonatas
DYEAR=2008
DGENRE=Classical
TTITLE0=Sonata for Piano no 3 in B flat major, K 281 (189f) - Allegro
TTITLE1=Sonata for Piano no 3 in B flat major, K 281 (189f) - Andante 
TTITLE1=Amoroso
TTITLE2=Sonata for Piano no 3 in B flat major, K 281 (189f) - Rondo, A
TTITLE2=llegro
TTITLE3=Sonata for Piano no 8 in A minor, K 310 (300d) - Allegro Maes
TTITLE3=toso
TTITLE4=Sonata for Piano no 8 in A minor, K 310 (300d) - Andante Cant
TTITLE4=abile con expressione
TTITLE5=Sonata for Piano no 8 in A minor, K 310 (300d) - Presto
TTITLE6=Sonata for Piano no 12 in F major, K 332 (300k) - Allegro
TTITLE7=Sonata for Piano no 12 in F major, K 332 (300k) - Adagio
TTITLE8=Sonata for Piano no 12 in F major, K 332 (300k) - Allegro assa
TTITLE8=i
TTITLE9=Sonata for Piano no 18 in D major, K 576 "Hunt" - Allegro
TTITLE10=Sonata for Piano no 18 in D major, K 576 "Hunt" - Adagio
TTITLE11=Sonata for Piano no 18 in D major, K 576 "Hunt" - Allegretto
TTITLE12=Fantasia for Piano in D minor, K 397 (385g)
EXTD=Forte Piano By Anton Walter, Vienna, circa 1797
EXTT0=
EXTT1=
EXTT2=
EXTT3=
EXTT4=
EXTT5=
EXTT6=
EXTT7=
EXTT8=
EXTT9=
EXTT10=
EXTT11=
EXTT12=
PLAYORDER=
